<?xml version="1.0" encoding="UTF-8"?> <!-- Generator: Adobe Illustrator 24.0.2, SVG Export Plug-In . SVG Version: 6.00 Build 0) --> <svg xmlns="http://www.w3.org/2000/svg" xmlns:xlink="http://www.w3.org/1999/xlink" id="Layer_1" x="0px" y="0px" viewBox="0 0 646 172" style="enable-background:new 0 0 646 172;" xml:space="preserve"> <style type="text/css"> .st0{fill:#E0B154;} .st1{fill:#59574B;} </style> <path class="st0" d="M56.9,134.7c-12.7,0-21.3-11.7-21.3-22.3c0-12.4,0-12,0-24.4H6v17.2c0,7.9,0,15.3,0.5,22.3 c0.8,11.9,6,19,12.5,25.2c8.8,8.4,23.7,11.9,38.9,11.9s30.1-3.5,38.9-11.9c6.4-6.2,11.7-13.2,12.5-25.2c0.5-7,0.5-14.3,0.5-22.3V88 H80.2c0,12.4,0,12,0,24.4C80.2,119,75.5,134.7,56.9,134.7"></path> <polygon class="st0" points="6,9.5 35.6,9.5 80.2,48.5 80.2,9.5 109.8,9.5 109.8,84.4 80.2,84.4 35.5,47.5 35.5,84.4 6,84.4 "></polygon> <path class="st0" d="M40.3,117.7c-1.3-3.5-1.3-7.3-1.2-11.6c0.1-3.9,0-40.6,0-51c0,0,18.4,14.5,7.6,32.8c2.9-2.1,6.3-3.6,11.7-3.6 c6.5,0,11.4,1.7,15.6,7c2.4,3.4,3.7,6.4,3.7,10.8c0,6.5-2,11.4-7.9,14.2c-4.2,1.8-7.1,2-11.2,0.7c-3.8-1.4-6.7-5.1-6.7-10.2 c0-4.9,3.1-8.5,7.2-8.5c3.7,0.1,5.9,2.5,5.8,6.5c0,2.4-1.4,3.8-2.8,5.3c4.6,0.4,7.5-4.1,7.4-8c-0.4-7.2-6.2-9.4-11.7-9 c-5.8,0.5-10.5,4.8-11.1,11.1c-0.5,5.3,0.1,9,2.7,12.9c6,8.1,16.1,8.3,25.7,2.8C64.3,138.6,43.7,129.5,40.3,117.7L40.3,117.7z"></path> <path class="st0" d="M76.6,9.5v31.4c0,0-13.5-10.6-9.6-26.3c-2.9,1.4-13.7,6.6-27.3-5.1C39.7,9.5,76.6,9.5,76.6,9.5z"></path> <path class="st1" d="M134,27.9v25.5c0,10.7,1.9,12.4,6.4,12.8l0.9,0.1c0.6,0.1,0.7,0.4,0.7,0.9v0.6c0,0.6-0.2,0.8-1,0.8h-16.3 c-0.9,0-1.2-0.2-1.2-0.9v-0.5c0-0.6,0.4-0.8,1.1-0.9l0.8-0.1c3.7-0.3,6-2.6,6-12.8V31c0-7.3-2.8-9.7-6.9-9.7H124 c-0.7,0-0.9-0.3-0.9-0.8v-0.6c0-0.6,0.4-0.9,1.4-0.9h9.2c2.3,0,2.8,0.3,4,1.8l28.6,35.6v-24c0-8.4-2.2-10.8-6.5-11.1l-0.8-0.1 c-0.7-0.1-1-0.3-1-0.9v-0.5c0-0.7,0.3-0.9,1.1-0.9h16.3c0.9,0,1.2,0.2,1.2,0.9v0.6c0,0.6-0.3,0.8-0.9,0.9l-0.9,0.1 c-4,0.3-5.8,2.8-5.8,11.2v35.5c0,0.7-0.3,1.1-1,1.1h-0.2c-0.6,0-0.9-0.3-1.4-0.9L134,27.9z"></path> <path class="st1" d="M226.2,66.1h0.6c0.6,0.1,0.8,0.3,0.8,1v0.5c0,0.7-0.2,0.9-0.9,0.9h-18.8c-0.6,0-0.9-0.2-0.9-0.8v-0.6 c0-0.6,0.4-0.9,1.1-1h0.6c4.5-0.1,5.2-2.3,3.8-6l-3.8-9.7H191l-3.2,8.7c-1.5,4-0.6,6.8,3.6,7l0.6,0.1c0.8,0,1.1,0.3,1.1,0.9v0.5 c0,0.7-0.2,0.9-0.9,0.9h-14.5c-0.8,0-1.2-0.2-1.2-0.9v-0.4c0-0.7,0.3-1.1,1.1-1.1h0.4c3.2,0,5.5-3.1,7-7.1l13.3-35.1l-0.3-0.6 c-0.3-0.9-0.4-1.4,0.4-1.8c1.1-0.6,2.8-2.2,3.6-3.1c0.4-0.4,0.6-0.5,1-0.5c0.5,0,0.7,0.3,0.8,0.7l16.5,42 C221.5,63.8,223.2,66,226.2,66.1 M191.8,48.1h15.8l-8.1-21L191.8,48.1z"></path> <path class="st1" d="M262.4,22.7c0.6-0.9,0.4-1.5-0.5-1.5h-11.4c-5.5,0-8.9,2.1-12.1,6.6c-0.6,0.7-2.5,3.7-3.2,4.9 c-0.4,0.6-0.6,0.7-1.2,0.6l-0.5-0.2c-0.6-0.1-0.7-0.5-0.6-1.1l3.6-11.2c0.4-1.6,0.9-1.9,2.6-1.9h32.5c0.6,0,0.9,0.2,0.9,0.7v0.3 c0,0.6-0.1,0.9-0.4,1.4l-28.7,43.4c-0.6,0.9-0.4,1.4,0.6,1.4h13.8c6.8,0,10.4-2.9,12.9-7c0.6-0.8,2-3.1,2.6-4.3 c0.3-0.7,0.6-0.8,1.2-0.7l0.4,0.1c0.6,0.1,0.7,0.4,0.5,1.1l-3,11.2c-0.4,1.6-0.7,2-2.7,2h-35.6c-0.6,0-0.9-0.2-0.9-0.7v-0.3 c0-0.6,0.1-0.9,0.4-1.4L262.4,22.7z"></path> <path class="st1" d="M328.4,66.1h0.6c0.6,0.1,0.8,0.3,0.8,1v0.5c0,0.7-0.2,0.9-0.9,0.9h-18.8c-0.6,0-0.9-0.2-0.9-0.8v-0.6 c0-0.6,0.4-0.9,1.1-1h0.6c4.5-0.1,5.2-2.3,3.8-6l-3.8-9.7h-17.7l-3.2,8.7c-1.5,4-0.6,6.8,3.6,7l0.6,0.1c0.8,0,1.1,0.3,1.1,0.9v0.5 c0,0.7-0.2,0.9-0.9,0.9h-14.5c-0.8,0-1.2-0.2-1.2-0.9v-0.4c0-0.7,0.3-1.1,1.1-1.1h0.4c3.2,0,5.5-3.1,7-7.1l13.3-35.1l-0.3-0.6 c-0.3-0.9-0.4-1.4,0.4-1.8c1.1-0.6,2.8-2.2,3.6-3.1c0.4-0.4,0.6-0.5,1-0.5c0.5,0,0.7,0.3,0.8,0.7l16.5,42 C323.8,63.8,325.5,66,328.4,66.1 M294.1,48.1h15.8l-8.1-21L294.1,48.1z"></path> <path class="st1" d="M349.3,44.9v15.4c0,4.5,1.2,5.8,5.5,5.8h0.6c0.9,0,1.1,0.3,1.1,1v0.6c0,0.6-0.2,0.9-1.2,0.9h-19.6 c-0.9,0-1.1-0.2-1.1-0.9v-0.6c0-0.6,0.3-0.9,1.2-0.9h0.6c4.3,0,5.5-1.3,5.5-5.8V27.2c0-4.5-1.2-5.8-5.7-5.8h-0.4 c-0.9,0-1.1-0.3-1.1-1v-0.6c0-0.6,0.2-0.8,1.2-0.8h22c9.5,0,16.1,4.2,16.1,12.5c0,6.5-4.5,11.1-12.2,12.4c1.2,0.8,2.1,1.8,3.1,3.2 l9.9,14.2c2.2,3.2,4,5,8,5c0.7,0,1,0.3,1,0.9v0.6c0,0.6-0.3,0.9-1.1,0.9h-9.6c-1.9,0-2.5-0.4-3.3-1.6l-12.7-18.8 c-1.7-2.4-2.8-3.2-5.6-3.2h-2.2V44.9z M349.3,42.5h5.5c7.4,0,11.6-4.3,11.6-10.4c0-6.2-3.3-10.8-10.9-10.8h-4.3 c-1.6,0-1.9,0.4-1.9,2V42.5L349.3,42.5z"></path> <path class="st1" d="M388.6,67.6V67c0-0.6,0.2-0.8,1.2-0.8h0.4c4.4,0,5.6-1.3,5.6-5.8V27.2c0-4.5-1.2-5.8-5.7-5.8h-0.4 c-0.9,0-1.1-0.3-1.1-1v-0.6c0-0.6,0.2-0.8,1.2-0.8h21.6c10.5,0,15.3,4.8,15.3,11.4c0,5.6-4,10-9.8,11.4c7,0.8,12.3,5.3,12.3,12.2 c0,8.5-6,14.6-17.4,14.6h-22.1C388.8,68.5,388.6,68.3,388.6,67.6 M403.2,41.4l5.5-0.1c7-0.1,10.2-4.9,10.2-10.4 c0-6.7-3.2-9.7-9.7-9.7h-4.1c-1.5,0-1.8,0.3-1.8,1.8v18.4H403.2z M403.2,43.8v15c0,5.4,1.8,7.2,6.7,7.2h1.8c6.3,0,9.5-5.3,9.5-11.8 c0-7.8-4.5-10.9-13.1-10.6L403.2,43.8z"></path> <path class="st1" d="M481.6,66.1h0.6c0.6,0.1,0.8,0.3,0.8,1v0.5c0,0.7-0.2,0.9-0.9,0.9h-18.9c-0.6,0-0.9-0.2-0.9-0.8v-0.6 c0-0.6,0.4-0.9,1.1-1h0.6c4.5-0.1,5.2-2.3,3.8-6l-3.8-9.7h-17.6l-3.2,8.7c-1.5,4-0.6,6.8,3.6,7l0.6,0.1c0.8,0,1.1,0.3,1.1,0.9v0.5 c0,0.7-0.2,0.9-0.9,0.9h-14.5c-0.8,0-1.2-0.2-1.2-0.9v-0.4c0-0.7,0.3-1.1,1.1-1.1h0.4c3.2,0,5.5-3.1,7-7.1l13.3-35.1l-0.3-0.6 c-0.3-0.9-0.4-1.4,0.4-1.8c1.1-0.6,2.8-2.2,3.6-3.1c0.4-0.4,0.6-0.5,1-0.5c0.5,0,0.7,0.3,0.8,0.7l16.5,42 C477,63.8,478.6,66,481.6,66.1 M447.2,48.1H463l-8.1-21L447.2,48.1z"></path> <path class="st1" d="M487.2,26.7c-2.1-3.7-3.5-5.3-6.5-5.5c-0.8,0-1.1-0.3-1.1-0.9v-0.6c0-0.6,0.3-0.8,1-0.8h17.7 c0.6,0,0.9,0.2,0.9,0.8v0.5c0,0.7-0.2,1-1,1h-0.6c-3.2,0.1-3.8,2.4-2.3,4.8L506,44.2l9.6-16c2.3-3.6,1.7-6.9-1.8-7H513 c-0.8,0-1-0.2-1-0.9v-0.5c0-0.6,0.4-0.8,1-0.8h14.2c1.1,0,1.3,0.2,1.3,0.9v0.4c0,0.7-0.3,0.9-1.1,1c-3.5,0.1-5.8,2.8-8.8,7.6 l-11.4,18v13.4c0,4.5,1.2,5.8,5.6,5.8h0.5c0.8,0,1.2,0.3,1.2,1v0.6c0,0.6-0.3,0.8-1.2,0.8h-19.7c-0.8,0-1.1-0.2-1.1-0.9V67 c0-0.6,0.4-0.8,1.3-0.8h0.5c4.3,0,5.5-1.3,5.5-5.8V47.7L487.2,26.7z"></path> <path class="st1" d="M549.7,21.3c-1.4,0-1.7,0.4-1.7,1.7v18.7h7.4c4.4,0,6.2-2.6,6.3-6.7v-0.6c0-0.7,0.4-0.9,1-0.9h0.6 c0.6,0,0.8,0.3,0.8,1.1v16c0,0.9-0.2,1.1-0.8,1.1h-0.6c-0.6,0-1-0.3-1-1.1l-0.1-0.6c-0.2-4-2-5.7-6.5-5.7h-7.2v16.5 c0,4,0.9,5.5,4.8,5.5h5.4c7,0,10.6-2.1,13.5-6.3c0.6-0.8,2.1-3.7,2.5-4.8c0.4-0.7,0.6-0.8,1.3-0.7l0.6,0.2c0.6,0.1,0.6,0.5,0.5,1.2 l-2.1,11c-0.3,1.4-0.8,1.8-2.3,1.8h-37.6c-0.8,0-1.1-0.2-1.1-0.9v-0.6c0-0.6,0.2-0.8,1.2-0.8h0.6c4.2,0,5.4-1.4,5.4-5.8V27.4 c0-4.5-1.2-5.8-5.7-5.8h-0.4c-0.8,0-1.1-0.3-1.1-1V20c0-0.6,0.2-0.9,1.2-0.9h36.1c1.3,0,1.8,0.2,1.9,1.6l1.3,9.8 c0.1,0.6-0.1,0.8-0.6,1l-0.4,0.1c-0.6,0.1-0.8,0-1.3-0.7c-0.4-0.9-1.6-3-2-3.6c-2.8-4.2-5.7-5.7-13.1-5.7h-6.8V21.3z"></path> <path class="st1" d="M605.5,68.1c-0.3,0.8-0.6,1.1-1.2,1.1h-0.2c-0.7,0-1-0.4-1.3-1.1l-15.8-40c-1.6-4-2.9-6.5-6-6.8l-0.6-0.1 c-0.7-0.1-0.9-0.4-0.9-1v-0.5c0-0.6,0.3-0.8,0.9-0.8h18.5c0.7,0,1,0.2,1,0.8v0.5c0,0.7-0.2,0.9-1,0.9h-0.6c-4.6,0.2-4.8,3.5-3.3,7.4 l11.6,30l10.5-29.4c1.6-4.3,0.5-7.9-3.1-8h-0.7c-0.7,0-0.9-0.3-0.9-0.9v-0.5c0-0.6,0.3-0.8,1-0.8h14c1,0,1.4,0.2,1.4,0.9v0.4 c0,0.7-0.3,1-1.3,1l-0.4,0.1c-3.4,0.1-5.1,3.4-6.7,7.5L605.5,68.1z"></path> <path class="st1" d="M151.1,140.5c-11.4,0-20.1-4.7-20.1-17.5V98.1c0-4.4-1.1-5.8-5-5.8h-0.6c-0.9,0-1.1-0.2-1.1-0.9v-0.6 c0-0.7,0.2-0.9,1.2-0.9h18.9c0.8,0,1.1,0.2,1.1,0.9v0.6c0,0.6-0.2,0.8-1,0.8h-0.4c-4.1,0-5.4,1.2-5.4,5.8v24.8 c0,9,4.5,14.5,13.1,14.5c10.6,0,14.8-5.8,14.8-17.8v-19c0-5.4-1.4-8.2-5.8-8.2h-0.3c-0.8,0-1.1-0.3-1.1-0.9v-0.6 c0-0.6,0.3-0.9,1.1-0.9h15.3c0.8,0,1.2,0.2,1.2,0.8v0.7c0,0.5-0.1,0.8-0.9,0.8h-0.4c-4.1,0-5.7,2.3-5.7,8.4v18.3 C169.9,132.7,164.2,140.5,151.1,140.5"></path> <path class="st1" d="M192.4,98.8v25.5c0,10.7,1.9,12.4,6.4,12.8l0.8,0.1c0.6,0.1,0.7,0.4,0.7,0.9v0.6c0,0.6-0.2,0.8-1,0.8H183 c-0.9,0-1.2-0.2-1.2-0.9v-0.5c0-0.6,0.4-0.8,1.1-0.9l0.8-0.1c3.7-0.3,6-2.6,6-12.8v-22.4c0-7.3-2.8-9.7-6.9-9.7h-0.5 c-0.7,0-0.9-0.3-0.9-0.8v-0.6c0-0.6,0.4-0.9,1.4-0.9h9.2c2.3,0,2.8,0.3,4,1.8l28.6,35.6v-23.9c0-8.4-2.2-10.8-6.5-11.1l-0.8-0.1 c-0.7-0.1-1-0.3-1-0.9v-0.5c0-0.7,0.3-0.9,1.1-0.9h16.3c0.9,0,1.2,0.2,1.2,0.8v0.6c0,0.6-0.3,0.9-0.9,0.9l-0.9,0.1 c-4,0.3-5.8,2.8-5.8,11.2V139c0,0.7-0.3,1.1-1,1.1h-0.1c-0.6,0-0.9-0.3-1.4-0.9L192.4,98.8z"></path> <path class="st1" d="M247.5,98c0-4.6-1.2-5.8-5.7-5.8h-0.4c-0.8,0-1.1-0.3-1.1-1v-0.6c0-0.6,0.2-0.8,1.2-0.8h19.7 c0.8,0,1.1,0.2,1.1,0.9v0.6c0,0.6-0.2,0.8-1.2,0.8h-0.4c-4.3,0-5.6,1.3-5.6,5.8v33.2c0,4.5,1.2,5.8,5.5,5.8h0.6c0.9,0,1.1,0.3,1.1,1 v0.6c0,0.6-0.2,0.9-1.2,0.9h-19.6c-0.8,0-1.1-0.2-1.1-0.9v-0.6c0-0.6,0.3-0.9,1.2-0.9h0.6c4.3,0,5.5-1.3,5.5-5.8V98H247.5z"></path> <path class="st1" d="M293,139.1c-0.3,0.8-0.6,1.1-1.2,1.1h-0.2c-0.7,0-1-0.4-1.3-1.1l-15.8-40c-1.6-4-2.9-6.5-6-6.8l-0.6-0.1 c-0.7-0.1-0.9-0.4-0.9-1v-0.5c0-0.6,0.3-0.8,0.9-0.8h18.5c0.7,0,1,0.2,1,0.8v0.5c0,0.7-0.2,0.9-1,0.9h-0.6c-4.6,0.2-4.8,3.5-3.3,7.4 l11.6,30l10.5-29.4c1.6-4.3,0.5-7.9-3.1-8h-0.7c-0.7,0-0.9-0.3-0.9-0.9v-0.5c0-0.6,0.3-0.8,1-0.8h14c1,0,1.3,0.2,1.3,0.9v0.4 c0,0.7-0.3,1-1.3,1l-0.4,0.1c-3.4,0.1-5.1,3.4-6.7,7.5L293,139.1z"></path> <path class="st1" d="M337.4,92.2c-1.4,0-1.7,0.4-1.7,1.7v18.7h7.4c4.4,0,6.2-2.6,6.3-6.7v-0.6c0-0.7,0.4-0.9,1-0.9h0.6 c0.6,0,0.9,0.3,0.9,1.1v16c0,0.8-0.2,1.1-0.9,1.1h-0.6c-0.6,0-1-0.3-1-1.1l-0.1-0.6c-0.2-4-2-5.7-6.5-5.7h-7.2v16.5 c0,4,0.9,5.5,4.8,5.5h5.4c7,0,10.6-2.1,13.5-6.3c0.6-0.8,2.1-3.7,2.5-4.8c0.4-0.7,0.6-0.8,1.3-0.7l0.6,0.2c0.6,0.1,0.6,0.5,0.5,1.2 l-2.1,11c-0.3,1.4-0.9,1.8-2.3,1.8h-37.6c-0.8,0-1.1-0.2-1.1-0.9v-0.6c0-0.6,0.2-0.8,1.2-0.8h0.6c4.2,0,5.4-1.4,5.4-5.8V98.3 c0-4.5-1.2-5.8-5.7-5.8h-0.4c-0.8,0-1.1-0.3-1.1-1v-0.6c0-0.6,0.2-0.8,1.2-0.8h36.1c1.3,0,1.8,0.2,1.9,1.6l1.3,9.8 c0.1,0.6-0.1,0.9-0.6,1l-0.4,0.1c-0.6,0.1-0.8,0-1.3-0.7c-0.4-0.9-1.6-3-2-3.5c-2.8-4.2-5.7-5.7-13.1-5.7h-6.8V92.2z"></path> <path class="st1" d="M384,115.9v15.4c0,4.5,1.2,5.8,5.5,5.8h0.6c0.9,0,1.1,0.3,1.1,1v0.6c0,0.6-0.2,0.9-1.2,0.9h-19.6 c-0.9,0-1.1-0.2-1.1-0.9v-0.6c0-0.6,0.3-0.8,1.2-0.8h0.6c4.3,0,5.5-1.3,5.5-5.8V98.3c0-4.5-1.2-5.8-5.7-5.8h-0.4 c-0.9,0-1.1-0.3-1.1-1v-0.6c0-0.6,0.2-0.8,1.2-0.8h22c9.5,0,16.1,4.2,16.1,12.5c0,6.5-4.5,11.1-12.2,12.4c1.2,0.8,2.1,1.8,3.1,3.2 l9.9,14.2c2.2,3.2,4,5,8,5c0.7,0,1,0.3,1,0.9v0.6c0,0.6-0.3,0.9-1.1,0.9h-9.6c-1.9,0-2.5-0.4-3.3-1.6l-12.7-18.8 c-1.7-2.4-2.8-3.2-5.6-3.2H384V115.9z M384,113.4h5.5c7.4,0,11.6-4.3,11.6-10.4c0-6.2-3.3-10.8-10.9-10.8h-4.3c-1.6,0-1.9,0.4-1.9,2 L384,113.4L384,113.4z"></path> <path class="st1" d="M430.6,99.2c0,5.5,4.8,7.7,11.9,10.9c7.5,3.4,14.3,6.7,14.3,16.2c0,8.7-6.9,14-15.7,14c-5.2,0-8.9-1.5-11.8-3 c-0.7-0.4-1.2-0.6-1.6-0.6s-0.6,0.3-0.9,0.8l-0.6,1.3c-0.1,0.4-0.3,0.6-0.8,0.6h-0.9c-0.4,0-0.6-0.3-0.6-0.8l-0.1-13.1 c0-0.8,0.2-1,0.8-1h0.9c0.5,0,0.7,0.1,0.9,0.7c1.6,8.6,7,12.6,14.3,12.6c6.3,0,9.6-3.5,9.6-8.7c0-5.9-4.4-8.4-11-11.4 c-8.8-3.9-14.8-6.8-14.8-15.9c0-8.4,6.9-13.1,15.3-13.1c4.4,0,7.4,1.1,10,2.5c0.6,0.4,1.1,0.5,1.4,0.5c0.4,0,0.6-0.2,0.8-0.6 l0.6-1.2c0.1-0.4,0.4-0.5,0.7-0.5h0.7c0.4,0,0.6,0.1,0.6,0.7l0.2,11.7c0,0.7-0.1,1-0.8,1h-0.9c-0.6,0-0.8-0.2-0.9-0.9 c-1.6-7-5.7-10.7-12.6-10.7C434.3,91.4,430.6,94.2,430.6,99.2"></path> <path class="st1" d="M469.4,98c0-4.6-1.2-5.8-5.7-5.8h-0.4c-0.8,0-1.1-0.3-1.1-1v-0.6c0-0.6,0.2-0.8,1.2-0.8h19.7 c0.8,0,1.1,0.2,1.1,0.9v0.6c0,0.6-0.2,0.8-1.2,0.8h-0.4c-4.3,0-5.6,1.3-5.6,5.8v33.2c0,4.5,1.2,5.8,5.5,5.8h0.6c0.9,0,1.1,0.3,1.1,1 v0.6c0,0.6-0.2,0.9-1.2,0.9h-19.6c-0.8,0-1.1-0.2-1.1-0.9v-0.6c0-0.6,0.3-0.9,1.2-0.9h0.6c4.3,0,5.5-1.3,5.5-5.8V98H469.4z"></path> <path class="st1" d="M504.4,92.2c-4.7,0-8.6,1.5-11.1,5.5c-0.4,0.7-1.7,2.9-2.1,3.8c-0.4,0.7-0.7,0.8-1.3,0.6l-0.6-0.2 c-0.6-0.2-0.7-0.6-0.4-1.5l2.7-10.6c0.2-0.6,0.4-1,1-1c1.1,0,3.5,0.9,6.6,0.9h31.2c3.6,0,5.8-0.9,6.9-0.9c0.5,0,0.8,0.4,0.9,0.9 l2.3,10.6c0.2,0.8,0.1,1.1-0.4,1.4l-0.5,0.1c-0.6,0.2-1,0-1.4-0.8c-0.3-0.7-1.2-2.3-1.6-3c-2.6-4.2-6.1-5.9-11.5-5.9h-4.5 c-1.6,0-1.9,0.5-1.9,2.1v36.9c0,4.5,1.2,5.8,5.5,5.8h0.6c0.8,0,1.1,0.3,1.1,1v0.6c0,0.6-0.2,0.8-1.2,0.8h-19.6 c-0.9,0-1.1-0.2-1.1-0.9v-0.6c0-0.6,0.3-0.8,1.2-0.8h0.6c4.3,0,5.5-1.3,5.5-5.8V94.4c0-1.7-0.3-2.2-1.9-2.2H504.4z"></path> <path class="st1" d="M552.1,97.6c-2.1-3.7-3.5-5.3-6.5-5.5c-0.8,0-1.1-0.3-1.1-0.9v-0.6c0-0.6,0.3-0.8,1-0.8h17.7 c0.6,0,0.9,0.2,0.9,0.8v0.5c0,0.7-0.2,1-1,1h-0.6c-3.2,0.1-3.8,2.4-2.3,4.8l10.7,18.2l9.7-16c2.3-3.6,1.7-6.9-1.8-7H578 c-0.8,0-1-0.2-1-0.9v-0.5c0-0.6,0.4-0.8,1-0.8h14.1c1.1,0,1.3,0.2,1.3,0.9v0.4c0,0.7-0.3,0.9-1.1,1c-3.5,0.1-5.8,2.8-8.8,7.6 l-11.4,18.1v13.4c0,4.5,1.2,5.8,5.6,5.8h0.5c0.8,0,1.2,0.3,1.2,1v0.6c0,0.6-0.3,0.8-1.2,0.8h-19.7c-0.8,0-1.1-0.2-1.1-0.9V138 c0-0.6,0.4-0.8,1.3-0.8h0.5c4.3,0,5.5-1.3,5.5-5.8v-12.7L552.1,97.6z"></path> </svg> 